<?xml version="1.0" encoding="UTF-8"?>
<svg width="56px" height="90px" viewBox="0 0 56 90" version="1.1" xmlns="http://www.w3.org/2000/svg" xmlns:xlink="http://www.w3.org/1999/xlink">
    <title>编组 18</title>
    <g id="页面-1" stroke="none" stroke-width="1" fill="none" fill-rule="evenodd">
        <g id="2.9.5实时监控切图" transform="translate(-240.000000, -323.000000)">
            <g id="编组-18" transform="translate(240.000000, 323.000000)">
                <path d="M50,5.46551724 C51.5187831,5.46551724 52.8937831,6.08112571 53.8890873,7.07642994 C54.8843915,8.07173418 55.5,9.44673418 55.5,10.9655172 L55.5,10.9655172 L55.5,83.5862069 C55.5,85.10499 54.8843915,86.47999 53.8890873,87.4752942 C52.8937831,88.4705984 51.5187831,89.0862069 50,89.0862069 L50,89.0862069 L6,89.0862069 C4.48121694,89.0862069 3.10621694,88.4705984 2.1109127,87.4752942 C1.11560847,86.47999 0.5,85.10499 0.5,83.5862069 L0.5,83.5862069 L0.5,10.9655172 C0.5,9.44673418 1.11560847,8.07173418 2.1109127,7.07642994 C3.10621694,6.08112571 4.48121694,5.46551724 6,5.46551724 L6,5.46551724 Z" id="矩形" stroke="#DBDEE3" fill="#FFFFFF"></path>
                <line x1="52.4482759" y1="11.7586207" x2="52.4482759" y2="20.0344828" id="直线-7" stroke="#DBDEE3" stroke-linecap="round"></line>
                <path d="M20.8793103,0 L37.1206897,0 C37.9491168,6.98650109e-17 38.6206897,0.671572875 38.6206897,1.5 L38.6206897,3.31034483 L38.6206897,3.31034483 L19.3793103,3.31034483 L19.3793103,1.5 C19.3793103,0.671572875 20.0508832,3.74224199e-16 20.8793103,0 Z" id="矩形备份-4" fill="#DBDEE3"></path>
            </g>
        </g>
    </g>
</svg>