<?xml version="1.0" encoding="UTF-8"?>
<svg width="24px" height="24px" viewBox="0 0 24 24" version="1.1" xmlns="http://www.w3.org/2000/svg" xmlns:xlink="http://www.w3.org/1999/xlink">
    <title>编组 5</title>
    <g id="页面-1" stroke="none" stroke-width="1" fill="none" fill-rule="evenodd">
        <g id="主接线图" transform="translate(-593.000000, -364.000000)">
            <g id="编组" transform="translate(572.000000, 333.000000)">
                <g id="编组-14" transform="translate(9.000000, 21.000000)">
                    <g id="编组-5" transform="translate(12.000000, 10.000000)">
                        <rect id="矩形" fill-opacity="0" fill="#D8D8D8" x="0" y="0" width="24" height="24"></rect>
                        <g id="a-jiaoliuzhiliubianhuanqi备份-4" transform="translate(3.000000, 2.000000)" fill="#353D5C" fill-rule="nonzero">
                            <path d="M0,2.55445127 C0,2.41424377 0.0556972019,2.2797788 0.154838874,2.18063713 C0.253980546,2.08149546 0.388445511,2.02579826 0.528653008,2.02579826 L17.4455487,2.02579826 C17.5857562,2.02579826 17.7202212,2.08149546 17.8193629,2.18063713 C17.9185045,2.2797788 17.9742017,2.41424377 17.9742017,2.55445127 L17.9742017,19.471347 C17.9742017,19.6115545 17.9185045,19.7460195 17.8193629,19.8451611 C17.7202212,19.9443028 17.5857562,20 17.4455487,20 L0.528653008,20 C0.388445511,20 0.253980546,19.9443028 0.154838874,19.8451611 C0.0556972019,19.7460195 0,19.6115545 0,19.471347 L0,2.55445127 Z M1.05730599,3.08310425 L1.05730599,18.942694 L16.9168958,18.942694 L16.9168958,3.08310425 L1.05730599,3.08310425 Z" id="形状"></path>
                            <path d="M0.154895335,19.0975893 L17.0717911,2.18069359 L17.8193064,2.92820891 L0.902410657,19.8451047 L0.154895335,19.0975893 Z M2.51268769,7.6607105 L2.11461198,7.31232819 C1.98175944,7.1965857 1.8492432,7.08045777 1.71706493,6.96394586 L1.71759357,6.96341722 L1.71917953,6.96183126 L1.72235145,6.95813067 L1.73292452,6.94597167 L1.77045889,6.90526538 C1.95635503,6.70866694 2.15771183,6.52728671 2.37259463,6.36286741 C2.74106578,6.08320999 3.32152676,5.72636922 3.96489744,5.72636922 C4.91964474,5.72636922 5.61429477,6.38982871 6.12444492,6.87671812 L6.17995348,6.92958341 C6.77521674,7.49629943 7.17540708,7.84098118 7.6654684,7.84098118 C7.9477691,7.84098118 8.2919222,7.66811165 8.61704379,7.42070205 C8.78518889,7.2918684 8.94286788,7.14992195 9.08860225,6.99619369 L9.11292028,6.96976105 L9.11820682,6.96447451 L9.51575386,7.31232819 L9.91382956,7.6607105 L9.91277227,7.66123917 L9.91171495,7.66282513 L9.90854304,7.66652569 L9.89744132,7.67868472 L9.86043562,7.71939098 C9.67453947,7.91598942 9.47318266,8.09736965 9.25829986,8.26178895 C8.88930006,8.5414464 8.30883907,8.89828717 7.6654684,8.89828717 C6.7107211,8.89828717 6.01607106,8.23482767 5.50592092,7.74793824 L5.450941,7.69507295 C4.85514909,7.12835695 4.45548743,6.78367518 3.96489744,6.78367518 C3.68259674,6.78367518 3.337915,6.95654471 3.01332205,7.20395431 C2.84499436,7.33276599 2.68713798,7.47471299 2.54123495,7.62846267 L2.51691689,7.65489533 L2.51163037,7.66018185 L2.51163037,7.66123917 L2.51163037,7.6607105 L2.51268769,7.6607105 Z M15.8595898,14.7134701 L8.45844789,14.7134701 L8.45844789,13.6561641 L15.8595898,13.6561641 L15.8595898,14.7134701 Z M10.5730598,16.828082 L8.45844789,16.828082 L8.45844789,15.7707761 L10.5730598,15.7707761 L10.5730598,16.828082 Z M13.2163248,16.828082 L11.1017128,16.828082 L11.1017128,15.7707761 L13.2163248,15.7707761 L13.2163248,16.828082 Z M15.8595898,16.828082 L13.7449778,16.828082 L13.7449778,15.7707761 L15.8595898,15.7707761 L15.8595898,16.828082 Z M10.6772045,2.55445127 L8.16504548,0.879678587 L8.7518503,0 L11.9237683,2.11461196 C12.0708158,2.21266291 12.1591375,2.37771142 12.1591375,2.55445125 C12.1591375,2.73119109 12.0708158,2.8962396 11.9237683,2.99429055 L8.7518503,5.10890251 L8.16504548,4.22922394 L10.6772045,2.55445127 Z" id="形状"></path>
                        </g>
                    </g>
                </g>
            </g>
        </g>
    </g>
</svg>