<?xml version="1.0" encoding="UTF-8"?>
<svg width="24px" height="24px" viewBox="0 0 24 24" version="1.1" xmlns="http://www.w3.org/2000/svg" xmlns:xlink="http://www.w3.org/1999/xlink">
    <title>编组 10</title>
    <g id="页面-1" stroke="none" stroke-width="1" fill="none" fill-rule="evenodd">
        <g id="主接线图" transform="translate(-584.000000, -564.000000)">
            <g id="编组" transform="translate(572.000000, 333.000000)">
                <g id="编组-14备份" transform="translate(0.000000, 221.000000)">
                    <g id="编组-10" transform="translate(12.000000, 10.000000)">
                        <rect id="矩形" fill-opacity="0" fill="#D8D8D8" x="0" y="0" width="24" height="24"></rect>
                        <path d="M20.4455487,3 C20.5857562,3 20.7202212,3.0556972 20.8193629,3.15483887 C20.9185045,3.25398055 20.9742017,3.38844551 20.9742017,3.52865301 L20.9742017,20.4455487 C20.9742017,20.5857562 20.9185045,20.7202212 20.8193629,20.8193629 C20.7202212,20.9185045 20.5857562,20.9742017 20.4455487,20.9742017 L3.52865301,20.9742017 C3.38844551,20.9742017 3.25398055,20.9185045 3.15483887,20.8193629 C3.0556972,20.7202212 3,20.5857562 3,20.4455487 L3,3.52865301 C3,3.38844551 3.0556972,3.25398055 3.15483887,3.15483887 C3.25398055,3.0556972 3.38844551,3 3.52865301,3 L20.4455487,3 Z M19.9168958,4.05730599 L4.05730599,4.05730599 L4.05730599,19.9168958 L19.9168958,19.9168958 L19.9168958,4.05730599 Z M18.5,11.9742017 C18.7761424,11.9742017 19,12.1980594 19,12.4742017 L19,17.9742017 C19,18.2503441 18.7761424,18.4742017 18.5,18.4742017 L7.5,18.4742017 C7.22385763,18.4742017 7,18.2503441 7,17.9742017 L7,17.474 L6,17.4742017 C5.72385763,17.4742017 5.5,17.2503441 5.5,16.9742017 L5.5,13.4742017 C5.5,13.1980594 5.72385763,12.9742017 6,12.9742017 L7,12.974 L7,12.4742017 C7,12.1980594 7.22385763,11.9742017 7.5,11.9742017 L18.5,11.9742017 Z M18.1,12.8742017 L7.9,12.8742017 L7.9,17.5742017 L18.1,17.5742017 L18.1,12.8742017 Z M16.95,13.5242017 L16.95,16.9242017 L16.05,16.9242017 L16.05,13.5242017 L16.95,13.5242017 Z M14.95,13.5242017 L14.95,16.9242017 L14.05,16.9242017 L14.05,13.5242017 L14.95,13.5242017 Z M7,13.874 L6.4,13.8742017 L6.4,16.5742017 L7,16.574 L7,13.874 Z M18.5,4.97420174 C18.7761424,4.97420174 19,5.19805937 19,5.47420174 L19,10.9742017 C19,11.2503441 18.7761424,11.4742017 18.5,11.4742017 L7.5,11.4742017 C7.22385763,11.4742017 7,11.2503441 7,10.9742017 L7,10.474 L6,10.4742017 C5.72385763,10.4742017 5.5,10.2503441 5.5,9.97420174 L5.5,6.47420174 C5.5,6.19805937 5.72385763,5.97420174 6,5.97420174 L7,5.974 L7,5.47420174 C7,5.19805937 7.22385763,4.97420174 7.5,4.97420174 L18.5,4.97420174 Z M18.1,5.87420174 L7.9,5.87420174 L7.9,10.5742017 L18.1,10.5742017 L18.1,5.87420174 Z M16.95,6.52420174 L16.95,9.92420174 L16.05,9.92420174 L16.05,6.52420174 L16.95,6.52420174 Z M14.95,6.52420174 L14.95,9.92420174 L14.05,9.92420174 L14.05,6.52420174 L14.95,6.52420174 Z M12.95,6.52420174 L12.95,9.92420174 L12.05,9.92420174 L12.05,6.52420174 L12.95,6.52420174 Z M7,6.874 L6.4,6.87420174 L6.4,9.57420174 L7,9.574 L7,6.874 Z" id="形状结合" fill="#596078" fill-rule="nonzero"></path>
                    </g>
                </g>
            </g>
        </g>
    </g>
</svg>