<?xml version="1.0" encoding="UTF-8"?>
<svg width="24px" height="24px" viewBox="0 0 24 24" version="1.1" xmlns="http://www.w3.org/2000/svg" xmlns:xlink="http://www.w3.org/1999/xlink">
    <title>编组 15</title>
    <g id="页面-1" stroke="none" stroke-width="1" fill="none" fill-rule="evenodd">
        <g id="主接线图" transform="translate(-1088.000000, -199.000000)">
            <g id="编组-15" transform="translate(1088.000000, 199.000000)">
                <rect id="矩形" fill-opacity="0" fill="#D8D8D8" x="0" y="0" width="24" height="24"></rect>
                <g id="substation" transform="translate(3.000000, 2.000000)" fill="#596078" fill-rule="nonzero">
                    <path d="M0.593133087,18.8487129 L3.16444779,18.8487129 L5.603772,5.42068057 L6.39521495,1.14998834 L2.93396439,1.14998834 L2.93396439,2.54988744 C2.93450141,2.63071981 2.92338801,2.71120781 2.90096678,2.78887022 C2.8799445,2.86172971 2.84011259,2.92777136 2.78547511,2.98035642 C2.72954197,3.03414275 2.66064976,3.07255016 2.58548951,3.09184839 C2.5048184,3.1136386 2.42156768,3.12440233 2.33800734,3.12384608 C2.24133735,3.12191248 2.14607424,3.10030817 2.05802752,3.06035067 C1.96374728,3.02139484 1.88791469,2.94788731 1.8460428,2.85486546 C1.80192033,2.75928427 1.77938833,2.6551591 1.78004757,2.54988744 L1.78004757,0.574029847 C1.77470841,0.42258223 1.83159008,0.275548877 1.93746365,0.167125281 C2.04333721,0.0587016848 2.18897539,-0.00166264398 2.34050717,3.48581912e-05 L15.6580474,3.48581912e-05 C15.8095792,-0.00166264398 15.9552174,0.0587016848 16.061091,0.167125281 C16.1669645,0.275548877 16.2238462,0.42258223 16.218507,0.574029847 L16.218507,2.54988744 C16.2245291,2.70514765 16.1645946,2.85571045 16.0535189,2.96435757 C15.8200096,3.17694447 15.4630876,3.17694447 15.2295783,2.96435757 C15.1185026,2.85571045 15.0585681,2.70514765 15.0645902,2.54988744 L15.0645902,1.14998834 L11.6038396,1.14998834 L14.8341068,18.8487129 L17.4054215,18.8487129 C17.5638667,18.8421815 17.7182794,18.8996583 17.8338906,19.0082014 C17.9450981,19.1169669 18.0050439,19.2677397 17.9988787,19.4231715 C17.9968265,19.4950578 17.9797982,19.5657252 17.9488823,19.6306565 C17.9193104,19.6994599 17.8804519,19.7638877 17.8333906,19.8221427 C17.7843103,19.8789293 17.7219705,19.9227217 17.6519037,19.9496335 C17.5737036,19.9825033 17.4897488,19.9994982 17.4049215,19.9996299 L0.593133087,19.9996299 C0.431716541,20.0054891 0.275595643,19.941547 0.164663979,19.8241426 C0.0593098628,19.7178811 0.00013726425,19.5743075 0.00013726425,19.4246713 C-0.00106413027,19.3229916 0.0276239035,19.223192 0.0826698817,19.137692 C0.137117689,19.053015 0.210338852,18.9820179 0.296654457,18.930207 C0.38614775,18.8765586 0.488800079,18.8488615 0.593133087,18.8502127 L0.593133087,18.8487129 Z M5.10930763,14.5745209 L11.3088609,14.5745209 L5.73776233,11.1297691 L5.11130748,14.5745209 L5.10930763,14.5745209 Z M6.0657387,9.40939312 L10.4829204,9.40939312 L6.62569835,6.24962081 L6.0657387,9.40939312 L6.0657387,9.40939312 Z M10.4169251,1.14998834 L7.58212943,1.14998834 L6.98867219,4.27426318 L11.0103824,4.27426318 L10.4169251,1.14998834 Z M11.2078681,5.42418032 L7.58212943,5.42418032 L11.8673206,8.99642288 L11.2078681,5.42418032 Z M12.1637992,10.5593102 L7.25215321,10.5593102 L12.7902541,14.0675574 L12.1637992,10.5593102 L12.1637992,10.5593102 Z M13.0867327,15.6944402 L7.31814845,15.6944402 L13.5811971,18.4692402 L13.0867327,15.6944402 L13.0867327,15.6944402 Z M11.5368444,18.8522126 L4.84582661,16.0114173 L4.34986236,18.8487129 L11.5378443,18.8487129 L11.5368444,18.8522126 Z M4.71383613,4.57724135 C4.71799116,4.72791892 4.65802747,4.87328543 4.54884802,4.97721253 C4.43323679,5.08575557 4.27882412,5.14323239 4.12037889,5.13670102 L0.593133087,5.13670102 C0.434473958,5.14282986 0.28003239,5.08480164 0.164663979,4.97571263 C0.0560615867,4.87205139 -0.00368096665,4.72732552 0.000175825808,4.57724135 C-0.0019477917,4.42262334 0.0571846466,4.27344424 0.164663979,4.16227126 C0.275595643,4.04486684 0.431716541,3.98092467 0.593133087,3.9867839 L4.12087887,3.9867839 C4.28229542,3.98092467 4.43841632,4.04486684 4.54934798,4.16227126 C4.65700999,4.27336362 4.71632602,4.42255242 4.71433609,4.57724135 L4.71383613,4.57724135 Z M3.23044302,5.70915977 C3.33478269,5.70775566 3.4374492,5.73545658 3.52692167,5.78915401 C3.61336389,5.84076134 3.68675628,5.91158757 3.74140621,5.99613909 C3.79647935,6.08162675 3.82516979,6.18143468 3.82390026,6.28311841 C3.82206815,6.43817099 3.75832666,6.58605678 3.64686447,6.69385677 C3.53540227,6.80165677 3.3854703,6.86042401 3.23044302,6.85707705 L1.48356892,6.85707705 C1.37923258,6.85845471 1.27657317,6.83075571 1.18709029,6.77708281 C1.10076368,6.72528622 1.02753955,6.65428618 0.973105711,6.56959777 C0.917978063,6.48413486 0.889282806,6.38431015 0.890611655,6.28261845 C0.884589583,6.12735824 0.944524113,5.97679544 1.05559977,5.86814832 C1.171211,5.75960527 1.32562366,5.70212844 1.48406889,5.70865981 L3.23044302,5.70865981 L3.23044302,5.70915977 Z M17.4054215,5.13520114 L13.8781757,5.13520114 C13.7933484,5.13506943 13.7093937,5.11807454 13.6311935,5.08520474 C13.5611656,5.05891696 13.4986708,5.01582301 13.4492066,4.95971378 C13.4046435,4.90554793 13.3660874,4.846708 13.3342149,4.78422643 C13.2997836,4.7150277 13.2826289,4.63851766 13.2842185,4.5612425 C13.2841173,4.41143315 13.3432305,4.26765575 13.4487066,4.16127132 C13.5596383,4.0438669 13.7157592,3.97992473 13.8771758,3.98578396 L17.4049215,3.98578396 C17.4494002,3.98581308 17.4937144,3.9911845 17.536912,4.00178281 C17.5824219,4.01364196 17.6265103,4.03040559 17.6684025,4.05177921 C17.7081894,4.07069587 17.7467611,4.09206893 17.7838942,4.11577461 C17.8165041,4.13660508 17.8445645,4.1638152 17.8663883,4.19576883 C17.8907738,4.23146708 17.9128184,4.26870922 17.9323835,4.30726079 C17.9537626,4.34775507 17.9705329,4.39051926 17.9823799,4.43475161 C17.9931572,4.47605749 17.9987003,4.51855416 17.9989173,4.5612425 C18.0001187,4.66292225 17.9714307,4.76272183 17.9163847,4.84822182 C17.8618951,4.93286457 17.7886828,5.00385313 17.7024001,5.05570686 C17.6129172,5.10937976 17.5102578,5.13707876 17.4059215,5.1357011 L17.4054215,5.13520114 Z M16.5154856,5.70915977 C16.6739309,5.7026284 16.8283435,5.76010523 16.9439548,5.86864827 C17.0550304,5.9772954 17.1149649,6.1278582 17.1089429,6.28311841 C17.110534,6.3605539 17.0933813,6.43722633 17.0589465,6.50660231 C17.0268489,6.56906761 16.9881292,6.62790139 16.9434548,6.68208965 C16.8944164,6.73892266 16.8320641,6.7827239 16.7619679,6.80958046 C16.6837875,6.84251442 16.5998197,6.85951195 16.5149857,6.85957686 L14.7681116,6.85957686 C14.6637752,6.86095453 14.5611158,6.83325554 14.4716329,6.77958264 C14.3853502,6.7277289 14.3121379,6.65674034 14.2576483,6.57209758 C14.2025752,6.48660992 14.1738848,6.38680199 14.1751543,6.28511826 C14.1691322,6.12985805 14.2290667,5.97929525 14.3401424,5.87064813 C14.4557536,5.76210508 14.6101663,5.70462825 14.7686115,5.71115962 L16.5159856,5.71115962 L16.5154856,5.70915977 Z" id="形状"></path>
                </g>
            </g>
        </g>
    </g>
</svg>