<?xml version="1.0" encoding="UTF-8"?>
<svg width="24px" height="24px" viewBox="0 0 24 24" version="1.1" xmlns="http://www.w3.org/2000/svg" xmlns:xlink="http://www.w3.org/1999/xlink">
    <title>编组</title>
    <defs>
        <linearGradient x1="16.8995266%" y1="16.9049109%" x2="59.621479%" y2="59.9649623%" id="linearGradient-1">
            <stop stop-color="#5DB8C3" offset="20.52%"></stop>
            <stop stop-color="#539936" offset="99.97%"></stop>
        </linearGradient>
        <linearGradient x1="34.3155186%" y1="29.1211305%" x2="77.3418174%" y2="77.5383099%" id="linearGradient-2">
            <stop stop-color="#5DB8C3" offset="20.52%"></stop>
            <stop stop-color="#539936" offset="99.97%"></stop>
        </linearGradient>
    </defs>
    <g id="页面-1" stroke="none" stroke-width="1" fill="none" fill-rule="evenodd">
        <g id="全站概览-1" transform="translate(-24.000000, -16.000000)" fill-rule="nonzero">
            <g id="编组" transform="translate(24.000000, 16.000000)">
                <path d="M20.8846391,4.09529153 C19.1403141,4.09529153 17.4509154,4.10449214 15.7606845,4.09278227 C13.3688954,4.07689029 11.6711746,5.15085314 10.6350655,7.31383438 C8.51624335,11.7359851 6.38909899,16.1539538 4.2652835,20.5727589 C4.20536394,20.6973854 4.1412833,20.8186662 4.07803488,20.9441292 C1.47735956,19.3198022 -0.445891849,14.0319571 0.09005532,10.4378618 C0.863184078,5.25456918 4.60565989,1.29244924 9.49659392,0.256961701 C14.0097018,-0.698229552 18.4062995,1.10425482 20.8846391,4.09529153 Z" id="路径" fill="url(#linearGradient-1)"></path>
                <path d="M23.2631127,7.51206584 C23.9272211,6.6338252 24.0736912,5.64099506 23.9696641,4.49928222 C23.9255567,4.61387172 23.9005902,4.6556927 23.8939325,4.70002294 C23.672563,6.16375735 22.3501716,7.49366461 20.3736584,7.43762449 C18.9522333,7.39747635 17.5283115,7.4292603 16.105222,7.43009672 C14.6405216,7.43009672 13.5877683,8.08417689 12.9494585,9.41659341 C10.8855626,13.7224818 8.81584115,18.025861 6.74944856,22.330913 C6.69036122,22.4530303 6.64042826,22.580166 6.58300534,22.7114839 C6.64625377,22.7533049 6.68536793,22.7850889 6.72947538,22.8068358 C6.88926087,22.8846228 7.04821415,22.9649191 7.21216072,23.0335055 C9.57731888,24.0129529 12.0098865,24.2580239 14.5181859,23.7227153 C19.9034563,22.5726383 23.8906036,17.651145 23.9105768,12.1249203 C23.9155701,10.7088618 23.6659053,9.33796996 23.2264952,7.99467999 C23.1798911,7.84914297 23.1807233,7.62163682 23.2631127,7.51206584 Z M18.0184868,13.5041763 C17.4409288,13.9366053 16.7751559,14.1306546 16.0577857,14.1323275 C14.6355283,14.1365096 13.213271,14.1348367 11.7901815,14.1340003 C11.7294297,14.1340003 11.6695102,14.1155991 11.5521677,14.0971978 C11.6295638,13.9265682 11.69198,13.7810312 11.7602217,13.6388399 C12.169672,12.7898739 12.5716324,11.9383987 12.9985593,11.0986334 C13.0651366,10.9681519 13.2432308,10.810905 13.3713921,10.8100686 C15.3013012,10.7925038 17.2320426,10.7983587 19.1627839,10.800868 C19.2118847,10.800868 19.2609854,10.8167599 19.3733346,10.836834 C19.3558581,11.9710191 18.8948104,12.8475869 18.0184868,13.5041763 Z" id="形状" fill="url(#linearGradient-2)"></path>
            </g>
        </g>
    </g>
</svg>